<svg width="350" height="62" viewBox="0 0 350 62" fill="none" xmlns="http://www.w3.org/2000/svg">
<rect y="6" width="344" height="56" fill="#0C0C0C"/>
<rect x="6.5" y="0.5" width="343" height="55" fill="white" stroke="#0C0C0C"/>
<rect x="10" y="4" width="336" height="48" fill="#0C0C0C"/>
<path d="M93.7481 35V21H98.6481C99.7415 21 100.648 21.1867 101.368 21.56C102.088 21.92 102.621 22.42 102.968 23.06C103.328 23.6867 103.508 24.4 103.508 25.2C103.508 25.96 103.335 26.66 102.988 27.3C102.655 27.9267 102.128 28.4267 101.408 28.8C100.688 29.1733 99.7681 29.36 98.6481 29.36H95.8681V35H93.7481ZM95.8681 27.62H98.5481C99.5481 27.62 100.261 27.4067 100.688 26.98C101.128 26.54 101.348 25.9467 101.348 25.2C101.348 24.4267 101.128 23.8267 100.688 23.4C100.261 22.96 99.5481 22.74 98.5481 22.74H95.8681V27.62ZM105.524 35V20.6H107.644V35H105.524ZM113.688 35.24C112.848 35.24 112.155 35.1 111.608 34.82C111.062 34.54 110.655 34.1733 110.388 33.72C110.122 33.2533 109.988 32.7467 109.988 32.2C109.988 31.24 110.362 30.48 111.108 29.92C111.855 29.36 112.922 29.08 114.308 29.08H116.908V28.9C116.908 28.1267 116.695 27.5467 116.268 27.16C115.855 26.7733 115.315 26.58 114.648 26.58C114.062 26.58 113.548 26.7267 113.108 27.02C112.682 27.3 112.422 27.72 112.328 28.28H110.208C110.275 27.56 110.515 26.9467 110.928 26.44C111.355 25.92 111.888 25.5267 112.528 25.26C113.182 24.98 113.895 24.84 114.668 24.84C116.055 24.84 117.128 25.2067 117.888 25.94C118.648 26.66 119.028 27.6467 119.028 28.9V35H117.188L117.008 33.3C116.728 33.8467 116.322 34.3067 115.788 34.68C115.255 35.0533 114.555 35.24 113.688 35.24ZM114.108 33.52C114.682 33.52 115.162 33.3867 115.548 33.12C115.948 32.84 116.255 32.4733 116.468 32.02C116.695 31.5667 116.835 31.0667 116.888 30.52H114.528C113.688 30.52 113.088 30.6667 112.728 30.96C112.382 31.2533 112.208 31.62 112.208 32.06C112.208 32.5133 112.375 32.8733 112.708 33.14C113.055 33.3933 113.522 33.52 114.108 33.52ZM122.348 39.4L124.728 34.18H124.148L120.228 25.08H122.528L125.568 32.42L128.748 25.08H130.988L124.588 39.4H122.348ZM140.71 35.02L136.93 21H139.21L141.99 32.6L145.19 21H147.53L150.63 32.6L153.41 21H155.69L151.85 35H149.37L146.31 24.02L143.15 35L140.71 35.02ZM158.755 23.2C158.355 23.2 158.022 23.08 157.755 22.84C157.502 22.5867 157.375 22.2733 157.375 21.9C157.375 21.5267 157.502 21.22 157.755 20.98C158.022 20.7267 158.355 20.6 158.755 20.6C159.155 20.6 159.482 20.7267 159.735 20.98C160.002 21.22 160.135 21.5267 160.135 21.9C160.135 22.2733 160.002 22.5867 159.735 22.84C159.482 23.08 159.155 23.2 158.755 23.2ZM157.695 35V25.08H159.815V35H157.695ZM166.773 35C165.8 35 165.027 34.7667 164.453 34.3C163.88 33.82 163.593 32.9733 163.593 31.76V26.86H161.893V25.08H163.593L163.853 22.56H165.713V25.08H168.513V26.86H165.713V31.76C165.713 32.3067 165.827 32.6867 166.053 32.9C166.293 33.1 166.7 33.2 167.273 33.2H168.413V35H166.773ZM170.699 35V20.6H172.819V26.68C173.153 26.1067 173.613 25.66 174.199 25.34C174.799 25.0067 175.459 24.84 176.179 24.84C177.366 24.84 178.299 25.2133 178.979 25.96C179.659 26.7067 179.999 27.82 179.999 29.3V35H177.899V29.52C177.899 27.6 177.133 26.64 175.599 26.64C174.799 26.64 174.133 26.92 173.599 27.48C173.079 28.04 172.819 28.84 172.819 29.88V35H170.699ZM186.715 35L191.875 21H194.195L199.315 35H197.075L195.875 31.58H190.155L188.955 35H186.715ZM190.755 29.9H195.275L193.015 23.52L190.755 29.9ZM206.307 35V21H215.087V22.72H208.427V27.14H213.947V28.84H208.427V35H206.307ZM217.086 35V25.08H218.986L219.166 26.96C219.513 26.3067 219.993 25.7933 220.606 25.42C221.233 25.0333 221.986 24.84 222.866 24.84V27.06H222.286C221.699 27.06 221.173 27.16 220.706 27.36C220.253 27.5467 219.886 27.8733 219.606 28.34C219.339 28.7933 219.206 29.4267 219.206 30.24V35H217.086ZM225.884 23.2C225.484 23.2 225.15 23.08 224.884 22.84C224.63 22.5867 224.504 22.2733 224.504 21.9C224.504 21.5267 224.63 21.22 224.884 20.98C225.15 20.7267 225.484 20.6 225.884 20.6C226.284 20.6 226.61 20.7267 226.864 20.98C227.13 21.22 227.264 21.5267 227.264 21.9C227.264 22.2733 227.13 22.5867 226.864 22.84C226.61 23.08 226.284 23.2 225.884 23.2ZM224.824 35V25.08H226.944V35H224.824ZM234.382 35.24C233.409 35.24 232.542 35.0267 231.782 34.6C231.036 34.16 230.449 33.5533 230.022 32.78C229.596 32.0067 229.382 31.1067 229.382 30.08C229.382 29.04 229.589 28.1267 230.002 27.34C230.429 26.5533 231.016 25.94 231.762 25.5C232.522 25.06 233.402 24.84 234.402 24.84C235.376 24.84 236.222 25.06 236.942 25.5C237.662 25.9267 238.222 26.5 238.622 27.22C239.022 27.94 239.222 28.7333 239.222 29.6C239.222 29.7333 239.216 29.88 239.202 30.04C239.202 30.1867 239.196 30.3533 239.182 30.54H231.462C231.529 31.5 231.842 32.2333 232.402 32.74C232.976 33.2333 233.636 33.48 234.382 33.48C234.982 33.48 235.482 33.3467 235.882 33.08C236.296 32.8 236.602 32.4267 236.802 31.96H238.922C238.656 32.8933 238.122 33.6733 237.322 34.3C236.536 34.9267 235.556 35.24 234.382 35.24ZM234.382 26.58C233.676 26.58 233.049 26.7933 232.502 27.22C231.956 27.6333 231.622 28.26 231.502 29.1H237.102C237.062 28.3267 236.789 27.7133 236.282 27.26C235.776 26.8067 235.142 26.58 234.382 26.58ZM241.422 35V25.08H243.302L243.462 26.82C243.769 26.2067 244.215 25.7267 244.802 25.38C245.402 25.02 246.089 24.84 246.862 24.84C248.062 24.84 249.002 25.2133 249.682 25.96C250.375 26.7067 250.722 27.82 250.722 29.3V35H248.622V29.52C248.622 27.6 247.835 26.64 246.262 26.64C245.475 26.64 244.822 26.92 244.302 27.48C243.795 28.04 243.542 28.84 243.542 29.88V35H241.422ZM257.739 35.24C256.779 35.24 255.932 35.0133 255.199 34.56C254.466 34.1067 253.892 33.4867 253.479 32.7C253.066 31.9133 252.859 31.02 252.859 30.02C252.859 29.02 253.066 28.1333 253.479 27.36C253.892 26.5733 254.466 25.96 255.199 25.52C255.946 25.0667 256.799 24.84 257.759 24.84C258.546 24.84 259.232 24.9933 259.819 25.3C260.419 25.6067 260.886 26.04 261.219 26.6V20.6H263.339V35H261.439L261.219 33.46C260.899 33.9267 260.459 34.34 259.899 34.7C259.339 35.06 258.619 35.24 257.739 35.24ZM258.119 33.4C259.026 33.4 259.766 33.0867 260.339 32.46C260.926 31.8333 261.219 31.0267 261.219 30.04C261.219 29.04 260.926 28.2333 260.339 27.62C259.766 26.9933 259.026 26.68 258.119 26.68C257.212 26.68 256.466 26.9933 255.879 27.62C255.292 28.2333 254.999 29.04 254.999 30.04C254.999 30.6933 255.132 31.2733 255.399 31.78C255.666 32.2867 256.032 32.6867 256.499 32.98C256.979 33.26 257.519 33.4 258.119 33.4Z" fill="#EEEEEE"/>
</svg>
