<svg width="350" height="62" viewBox="0 0 350 62" fill="none" xmlns="http://www.w3.org/2000/svg">
<rect y="6" width="344" height="56" fill="#0C0C0C"/>
<rect x="6.5" y="0.5" width="343" height="55" fill="white" stroke="#0C0C0C"/>
<rect x="10" y="4" width="336" height="48" fill="#0C0C0C"/>
<path d="M127.801 35V21H132.601C133.708 21 134.621 21.1867 135.341 21.56C136.061 21.92 136.595 22.4133 136.941 23.04C137.288 23.6667 137.461 24.38 137.461 25.18C137.461 25.94 137.288 26.6333 136.941 27.26C136.608 27.8867 136.081 28.3933 135.361 28.78C134.655 29.1533 133.735 29.34 132.601 29.34H129.801V35H127.801ZM129.801 27.68H132.521C133.561 27.68 134.301 27.4533 134.741 27C135.195 26.5467 135.421 25.94 135.421 25.18C135.421 24.38 135.195 23.76 134.741 23.32C134.301 22.88 133.561 22.66 132.521 22.66H129.801V27.68ZM139.518 35V20.6H141.518V35H139.518ZM147.585 35.24C146.758 35.24 146.071 35.1 145.525 34.82C144.978 34.54 144.571 34.1667 144.305 33.7C144.038 33.2333 143.905 32.7267 143.905 32.18C143.905 31.5267 144.071 30.9667 144.405 30.5C144.751 30.0333 145.245 29.6733 145.885 29.42C146.525 29.1667 147.298 29.04 148.205 29.04H150.825C150.825 28.4533 150.731 27.9733 150.545 27.6C150.371 27.2133 150.111 26.9267 149.765 26.74C149.431 26.54 149.011 26.44 148.505 26.44C147.905 26.44 147.385 26.5867 146.945 26.88C146.505 27.1733 146.231 27.6067 146.125 28.18H144.125C144.205 27.46 144.445 26.8467 144.845 26.34C145.258 25.8333 145.785 25.4467 146.425 25.18C147.078 24.9133 147.771 24.78 148.505 24.78C149.438 24.78 150.225 24.9467 150.865 25.28C151.505 25.6133 151.991 26.0867 152.325 26.7C152.658 27.3 152.825 28.0133 152.825 28.84V35H151.085L150.925 33.3C150.791 33.5667 150.618 33.82 150.405 34.06C150.205 34.3 149.965 34.5067 149.685 34.68C149.418 34.8533 149.105 34.9867 148.745 35.08C148.398 35.1867 148.011 35.24 147.585 35.24ZM147.965 33.62C148.391 33.62 148.778 33.5333 149.125 33.36C149.471 33.1867 149.765 32.9533 150.005 32.66C150.258 32.3533 150.445 32.0133 150.565 31.64C150.698 31.2667 150.771 30.88 150.785 30.48V30.44H148.405C147.831 30.44 147.365 30.5133 147.005 30.66C146.645 30.7933 146.385 30.98 146.225 31.22C146.078 31.46 146.005 31.74 146.005 32.06C146.005 32.38 146.078 32.66 146.225 32.9C146.385 33.1267 146.611 33.3067 146.905 33.44C147.198 33.56 147.551 33.62 147.965 33.62ZM156.186 39.4L158.666 33.88H158.066L154.086 25.02H156.246L159.426 32.26L162.606 25.02H164.706L158.286 39.4H156.186ZM178.049 35.24C176.689 35.24 175.489 34.94 174.449 34.34C173.422 33.7267 172.615 32.88 172.029 31.8C171.455 30.7067 171.169 29.44 171.169 28C171.169 26.5733 171.455 25.32 172.029 24.24C172.615 23.1467 173.422 22.2933 174.449 21.68C175.489 21.0667 176.689 20.76 178.049 20.76C179.435 20.76 180.642 21.0667 181.669 21.68C182.709 22.2933 183.515 23.1467 184.089 24.24C184.662 25.32 184.949 26.5733 184.949 28C184.949 29.44 184.662 30.7067 184.089 31.8C183.515 32.88 182.709 33.7267 181.669 34.34C180.642 34.94 179.435 35.24 178.049 35.24ZM178.049 33.46C179.022 33.46 179.875 33.24 180.609 32.8C181.342 32.36 181.909 31.7333 182.309 30.92C182.709 30.1067 182.909 29.1333 182.909 28C182.909 26.8667 182.709 25.8933 182.309 25.08C181.909 24.2667 181.342 23.6467 180.609 23.22C179.875 22.78 179.022 22.56 178.049 22.56C177.089 22.56 176.242 22.78 175.509 23.22C174.789 23.6467 174.222 24.2667 173.809 25.08C173.409 25.8933 173.209 26.8667 173.209 28C173.209 29.1333 173.409 30.1067 173.809 30.92C174.222 31.7333 174.789 32.36 175.509 32.8C176.242 33.24 177.089 33.46 178.049 33.46ZM187.253 35V25.02H189.033L189.173 26.76C189.493 26.1467 189.946 25.6667 190.533 25.32C191.119 24.96 191.799 24.78 192.573 24.78C193.373 24.78 194.059 24.9467 194.633 25.28C195.206 25.6 195.646 26.0867 195.953 26.74C196.273 27.38 196.433 28.1933 196.433 29.18V35H194.433V29.38C194.433 28.4333 194.226 27.7133 193.813 27.22C193.413 26.7267 192.819 26.48 192.033 26.48C191.499 26.48 191.019 26.6133 190.593 26.88C190.179 27.1333 189.853 27.5 189.613 27.98C189.373 28.46 189.253 29.0533 189.253 29.76V35H187.253ZM198.971 35V20.6H200.971V35H198.971ZM203.838 35V25.02H205.838V35H203.838ZM204.838 23.08C204.465 23.08 204.151 22.96 203.898 22.72C203.645 22.48 203.518 22.1733 203.518 21.8C203.518 21.44 203.645 21.1467 203.898 20.92C204.151 20.68 204.465 20.56 204.838 20.56C205.211 20.56 205.525 20.68 205.778 20.92C206.031 21.1467 206.158 21.44 206.158 21.8C206.158 22.1733 206.031 22.48 205.778 22.72C205.525 22.96 205.211 23.08 204.838 23.08ZM208.698 35V25.02H210.478L210.618 26.76C210.938 26.1467 211.391 25.6667 211.978 25.32C212.565 24.96 213.245 24.78 214.018 24.78C214.818 24.78 215.505 24.9467 216.078 25.28C216.651 25.6 217.091 26.0867 217.398 26.74C217.718 27.38 217.878 28.1933 217.878 29.18V35H215.878V29.38C215.878 28.4333 215.671 27.7133 215.258 27.22C214.858 26.7267 214.265 26.48 213.478 26.48C212.945 26.48 212.465 26.6133 212.038 26.88C211.625 27.1333 211.298 27.5 211.058 27.98C210.818 28.46 210.698 29.0533 210.698 29.76V35H208.698ZM224.997 35.24C224.023 35.24 223.163 35.0267 222.417 34.6C221.67 34.16 221.083 33.5533 220.657 32.78C220.243 31.9933 220.037 31.08 220.037 30.04C220.037 28.9867 220.243 28.0667 220.657 27.28C221.07 26.4933 221.65 25.88 222.397 25.44C223.157 25 224.03 24.78 225.017 24.78C226.003 24.78 226.85 25 227.557 25.44C228.277 25.8667 228.823 26.44 229.197 27.16C229.583 27.88 229.777 28.6733 229.777 29.54C229.777 29.6733 229.777 29.82 229.777 29.98C229.777 30.1267 229.77 30.2933 229.757 30.48H221.497V29.06H227.797C227.757 28.2467 227.477 27.6067 226.957 27.14C226.437 26.6733 225.783 26.44 224.997 26.44C224.463 26.44 223.963 26.56 223.497 26.8C223.043 27.04 222.677 27.3933 222.397 27.86C222.13 28.3267 221.997 28.9133 221.997 29.62V30.2C221.997 30.9333 222.13 31.5533 222.397 32.06C222.677 32.5533 223.043 32.9333 223.497 33.2C223.95 33.4533 224.443 33.58 224.977 33.58C225.617 33.58 226.143 33.44 226.557 33.16C226.983 32.8667 227.297 32.48 227.497 32H229.497C229.323 32.6133 229.03 33.1667 228.617 33.66C228.203 34.14 227.69 34.5267 227.077 34.82C226.477 35.1 225.783 35.24 224.997 35.24Z" fill="#EEEEEE"/>
</svg>
