<svg width="344" height="56" viewBox="0 0 344 56" fill="none" xmlns="http://www.w3.org/2000/svg">
<rect width="344" height="56" fill="#0C0C0C"/>
<rect x="0.5" y="0.5" width="343" height="55" fill="white" stroke="#0C0C0C"/>
<rect x="4" y="4" width="336" height="48" fill="#0C0C0C"/>
<path d="M121.801 35V21H126.601C127.708 21 128.621 21.1867 129.341 21.56C130.061 21.92 130.595 22.4133 130.941 23.04C131.288 23.6667 131.461 24.38 131.461 25.18C131.461 25.94 131.288 26.6333 130.941 27.26C130.608 27.8867 130.081 28.3933 129.361 28.78C128.655 29.1533 127.735 29.34 126.601 29.34H123.801V35H121.801ZM123.801 27.68H126.521C127.561 27.68 128.301 27.4533 128.741 27C129.195 26.5467 129.421 25.94 129.421 25.18C129.421 24.38 129.195 23.76 128.741 23.32C128.301 22.88 127.561 22.66 126.521 22.66H123.801V27.68ZM133.518 35V20.6H135.518V35H133.518ZM141.585 35.24C140.758 35.24 140.071 35.1 139.525 34.82C138.978 34.54 138.571 34.1667 138.305 33.7C138.038 33.2333 137.905 32.7267 137.905 32.18C137.905 31.5267 138.071 30.9667 138.405 30.5C138.751 30.0333 139.245 29.6733 139.885 29.42C140.525 29.1667 141.298 29.04 142.205 29.04H144.825C144.825 28.4533 144.731 27.9733 144.545 27.6C144.371 27.2133 144.111 26.9267 143.765 26.74C143.431 26.54 143.011 26.44 142.505 26.44C141.905 26.44 141.385 26.5867 140.945 26.88C140.505 27.1733 140.231 27.6067 140.125 28.18H138.125C138.205 27.46 138.445 26.8467 138.845 26.34C139.258 25.8333 139.785 25.4467 140.425 25.18C141.078 24.9133 141.771 24.78 142.505 24.78C143.438 24.78 144.225 24.9467 144.865 25.28C145.505 25.6133 145.991 26.0867 146.325 26.7C146.658 27.3 146.825 28.0133 146.825 28.84V35H145.085L144.925 33.3C144.791 33.5667 144.618 33.82 144.405 34.06C144.205 34.3 143.965 34.5067 143.685 34.68C143.418 34.8533 143.105 34.9867 142.745 35.08C142.398 35.1867 142.011 35.24 141.585 35.24ZM141.965 33.62C142.391 33.62 142.778 33.5333 143.125 33.36C143.471 33.1867 143.765 32.9533 144.005 32.66C144.258 32.3533 144.445 32.0133 144.565 31.64C144.698 31.2667 144.771 30.88 144.785 30.48V30.44H142.405C141.831 30.44 141.365 30.5133 141.005 30.66C140.645 30.7933 140.385 30.98 140.225 31.22C140.078 31.46 140.005 31.74 140.005 32.06C140.005 32.38 140.078 32.66 140.225 32.9C140.385 33.1267 140.611 33.3067 140.905 33.44C141.198 33.56 141.551 33.62 141.965 33.62ZM150.186 39.4L152.666 33.88H152.066L148.086 25.02H150.246L153.426 32.26L156.606 25.02H158.706L152.286 39.4H150.186ZM172.049 35.24C170.689 35.24 169.489 34.94 168.449 34.34C167.422 33.7267 166.615 32.88 166.029 31.8C165.455 30.7067 165.169 29.44 165.169 28C165.169 26.5733 165.455 25.32 166.029 24.24C166.615 23.1467 167.422 22.2933 168.449 21.68C169.489 21.0667 170.689 20.76 172.049 20.76C173.435 20.76 174.642 21.0667 175.669 21.68C176.709 22.2933 177.515 23.1467 178.089 24.24C178.662 25.32 178.949 26.5733 178.949 28C178.949 29.44 178.662 30.7067 178.089 31.8C177.515 32.88 176.709 33.7267 175.669 34.34C174.642 34.94 173.435 35.24 172.049 35.24ZM172.049 33.46C173.022 33.46 173.875 33.24 174.609 32.8C175.342 32.36 175.909 31.7333 176.309 30.92C176.709 30.1067 176.909 29.1333 176.909 28C176.909 26.8667 176.709 25.8933 176.309 25.08C175.909 24.2667 175.342 23.6467 174.609 23.22C173.875 22.78 173.022 22.56 172.049 22.56C171.089 22.56 170.242 22.78 169.509 23.22C168.789 23.6467 168.222 24.2667 167.809 25.08C167.409 25.8933 167.209 26.8667 167.209 28C167.209 29.1333 167.409 30.1067 167.809 30.92C168.222 31.7333 168.789 32.36 169.509 32.8C170.242 33.24 171.089 33.46 172.049 33.46ZM181.253 35V25.02H183.033L183.173 26.76C183.493 26.1467 183.946 25.6667 184.533 25.32C185.119 24.96 185.799 24.78 186.573 24.78C187.373 24.78 188.059 24.9467 188.633 25.28C189.206 25.6 189.646 26.0867 189.953 26.74C190.273 27.38 190.433 28.1933 190.433 29.18V35H188.433V29.38C188.433 28.4333 188.226 27.7133 187.813 27.22C187.413 26.7267 186.819 26.48 186.033 26.48C185.499 26.48 185.019 26.6133 184.593 26.88C184.179 27.1333 183.853 27.5 183.613 27.98C183.373 28.46 183.253 29.0533 183.253 29.76V35H181.253ZM192.971 35V20.6H194.971V35H192.971ZM197.838 35V25.02H199.838V35H197.838ZM198.838 23.08C198.465 23.08 198.151 22.96 197.898 22.72C197.645 22.48 197.518 22.1733 197.518 21.8C197.518 21.44 197.645 21.1467 197.898 20.92C198.151 20.68 198.465 20.56 198.838 20.56C199.211 20.56 199.525 20.68 199.778 20.92C200.031 21.1467 200.158 21.44 200.158 21.8C200.158 22.1733 200.031 22.48 199.778 22.72C199.525 22.96 199.211 23.08 198.838 23.08ZM202.698 35V25.02H204.478L204.618 26.76C204.938 26.1467 205.391 25.6667 205.978 25.32C206.565 24.96 207.245 24.78 208.018 24.78C208.818 24.78 209.505 24.9467 210.078 25.28C210.651 25.6 211.091 26.0867 211.398 26.74C211.718 27.38 211.878 28.1933 211.878 29.18V35H209.878V29.38C209.878 28.4333 209.671 27.7133 209.258 27.22C208.858 26.7267 208.265 26.48 207.478 26.48C206.945 26.48 206.465 26.6133 206.038 26.88C205.625 27.1333 205.298 27.5 205.058 27.98C204.818 28.46 204.698 29.0533 204.698 29.76V35H202.698ZM218.997 35.24C218.023 35.24 217.163 35.0267 216.417 34.6C215.67 34.16 215.083 33.5533 214.657 32.78C214.243 31.9933 214.037 31.08 214.037 30.04C214.037 28.9867 214.243 28.0667 214.657 27.28C215.07 26.4933 215.65 25.88 216.397 25.44C217.157 25 218.03 24.78 219.017 24.78C220.003 24.78 220.85 25 221.557 25.44C222.277 25.8667 222.823 26.44 223.197 27.16C223.583 27.88 223.777 28.6733 223.777 29.54C223.777 29.6733 223.777 29.82 223.777 29.98C223.777 30.1267 223.77 30.2933 223.757 30.48H215.497V29.06H221.797C221.757 28.2467 221.477 27.6067 220.957 27.14C220.437 26.6733 219.783 26.44 218.997 26.44C218.463 26.44 217.963 26.56 217.497 26.8C217.043 27.04 216.677 27.3933 216.397 27.86C216.13 28.3267 215.997 28.9133 215.997 29.62V30.2C215.997 30.9333 216.13 31.5533 216.397 32.06C216.677 32.5533 217.043 32.9333 217.497 33.2C217.95 33.4533 218.443 33.58 218.977 33.58C219.617 33.58 220.143 33.44 220.557 33.16C220.983 32.8667 221.297 32.48 221.497 32H223.497C223.323 32.6133 223.03 33.1667 222.617 33.66C222.203 34.14 221.69 34.5267 221.077 34.82C220.477 35.1 219.783 35.24 218.997 35.24Z" fill="#EEEEEE"/>
</svg>
